# xmcd CD database file
# Copyright (C) 1993-1998 Ti Kan
#
# Track frame offsets:
#	150
#	23870
#	48587
#	76222
#	108432
#	125700
#	148735
#	171067
#	199907
#
# Disc length: 2950 seconds
#
# Revision: 1
# Processed by: cddbd v1.4b41PL1 Copyright (c) Steve Scherf et al.
# Submitted via: CDmax 1.5.4
#
DISCID=7d0b8409
DTITLE=Luther Vandross
DYEAR=1900
DGENRE=
TTITLE0=Bad Boy - Having A Party
TTITLE1=Since I Lost My Baby
TTITLE2=She Loves Me Back
TTITLE3=A House Is Not A Home
TTITLE4=Never Too Much
TTITLE5=She's A Super Lady
TTITLE6=Sugar And Spice (I Found Me A Girl)
TTITLE7=Better Love
TTITLE8=You're The Sweetest One
EXTD=
EXTT0=
EXTT1=
EXTT2=
EXTT3=
EXTT4=
EXTT5=
EXTT6=
EXTT7=
EXTT8=
PLAYORDER=
